<svg version="1.0" xmlns="http://www.w3.org/2000/svg"
    width="1200.000000pt" height="1200.000000pt" viewBox="0 0 1200.000000 1200.000000"
    preserveAspectRatio="xMidYMid meet">

    <g transform="translate(0.000000,1200.000000) scale(0.100000,-0.100000)"
        fill="#000000" stroke="none">
        <path fill="#454545"
            d="M11525 10236 c-1303 -732 -1763 -982 -2440 -1327 -982 -499 -1755
-820 -2310 -958 -154 -39 -317 -71 -356 -71 -10 0 -45 -17 -76 -37 -64 -40
-360 -231 -463 -298 -55 -36 -1250 -808 -1440 -930 -283 -182 -410 -264 -440
-283 -19 -12 -33 -22 -30 -22 3 0 101 34 219 75 945 331 1441 455 1821 455
269 -1 411 -62 478 -208 35 -78 35 -200 -2 -336 -14 -54 -24 -101 -22 -103 2
-3 13 0 23 6 36 19 263 82 381 106 322 64 567 66 1077 9 121 -13 283 -27 361
-31 427 -18 800 121 1214 452 230 184 557 506 500 492 -14 -3 -88 -18 -165
-32 -77 -14 -147 -28 -155 -31 -18 -5 10 20 122 108 150 118 290 250 484 460
104 111 195 211 203 220 7 10 -29 -5 -80 -33 -246 -132 -699 -349 -699 -334 0
2 46 36 103 76 56 41 156 118 222 173 123 103 498 471 664 654 l93 102 -283
-144 c-388 -198 -761 -361 -928 -406 -23 -6 -50 -14 -59 -17 -9 -3 44 31 119
75 504 298 845 578 1360 1117 142 148 256 271 255 272 -2 2 -86 -40 -187 -94
-287 -151 -786 -389 -795 -380 -2 2 32 28 75 59 352 255 673 543 1077 968 213
224 293 312 282 309 -2 0 -93 -51 -203 -113z m-645 -540 c0 -8 -267 -234 -379
-320 -367 -284 -725 -498 -1418 -851 -150 -77 -271 -140 -269 -142 4 -4 595
160 766 213 334 103 609 200 810 284 129 55 130 54 55 -16 -178 -169 -508
-414 -760 -564 -438 -261 -915 -446 -1892 -735 -90 -27 -162 -50 -160 -51 6
-7 968 133 1152 167 464 87 845 189 1147 310 54 21 101 39 104 39 9 0 -96 -88
-191 -159 -312 -235 -605 -393 -1115 -601 -393 -160 -466 -191 -430 -185 648
108 992 183 1286 279 77 25 145 46 150 46 18 0 -185 -142 -306 -214 -224 -134
-404 -209 -662 -276 -384 -99 -775 -145 -1593 -185 -165 -8 -348 -18 -407 -21
-89 -6 -108 -5 -108 7 0 8 -13 41 -29 74 -144 299 -635 317 -1511 56 -51 -16
-32 -2 210 154 118 76 413 267 655 425 l440 286 141 27 c652 124 1665 550
3089 1299 215 113 467 247 560 298 272 148 412 224 540 294 125 69 125 68 125
62z m-1725 -2942 c-190 -120 -457 -207 -730 -239 -118 -13 -238 -16 -755 -13
-600 3 -618 2 -750 -20 -74 -12 -158 -29 -187 -36 -28 -8 -53 -12 -55 -11 -2
2 -2 54 0 115 l3 112 392 -8 c566 -13 1257 -11 1407 4 214 22 460 60 575 90
139 37 149 37 100 6z" />
        <path fill="#304fa8"
            d="M725 6383 c-4 -16 -10 -46 -15 -68 -9 -36 -37 -169 -116 -550 -42
-203 -94 -447 -109 -515 -8 -36 -26 -120 -40 -187 -34 -164 -70 -337 -94 -455
-12 -54 -21 -102 -21 -108 0 -6 63 -10 174 -10 196 0 177 -8 195 85 6 28 28
138 51 245 23 107 57 269 76 360 41 195 66 320 89 450 9 52 20 115 25 140 5
25 14 83 21 130 22 151 27 98 59 -540 5 -107 12 -229 15 -270 3 -41 10 -165
15 -275 6 -110 13 -228 16 -262 l7 -63 181 0 181 0 373 746 c205 410 376 744
378 741 3 -3 -22 -115 -55 -249 -33 -133 -67 -277 -75 -318 -9 -41 -27 -129
-41 -195 -14 -66 -30 -140 -35 -165 -9 -44 -74 -356 -103 -492 l-15 -68 183 0
182 0 27 128 c15 70 38 179 51 242 62 298 171 815 190 900 8 36 26 121 40 190
14 69 42 197 61 285 18 88 34 164 34 168 0 4 -125 6 -277 5 l-277 -3 -355
-709 c-196 -390 -360 -709 -366 -710 -12 -1 -19 74 -40 439 -8 160 -20 351
-25 425 -5 74 -15 231 -21 348 l-12 212 -263 0 -264 0 -5 -27z" />
        <path fill="#304fa8"
            d="M3400 5965 c-311 -71 -534 -311 -617 -667 -22 -94 -27 -137 -27 -258
0 -158 13 -230 61 -324 51 -101 182 -199 318 -237 78 -22 380 -19 470 5 96 25
225 75 231 90 3 7 3 73 2 148 l-3 135 -96 -38 c-184 -74 -366 -89 -464 -39
-66 34 -109 98 -124 182 -6 35 -8 73 -5 86 6 21 12 22 93 22 100 0 307 24 384
44 280 74 437 243 437 471 0 177 -106 313 -289 371 -68 22 -290 27 -371 9z
m230 -282 c37 -21 50 -52 50 -118 0 -45 -5 -60 -33 -97 -63 -83 -163 -123
-334 -135 -122 -8 -125 -6 -108 52 38 125 154 265 247 298 59 21 143 21 178 0z" />
        <path fill="#304fa8"
            d="M5137 5969 c-98 -23 -217 -110 -298 -219 -28 -38 -56 -70 -60 -70 -9
0 -4 86 10 202 4 32 5 60 3 63 -3 3 -70 5 -148 5 -127 0 -143 -2 -148 -17 -2
-10 -14 -63 -26 -118 -11 -55 -27 -129 -35 -165 -13 -61 -42 -196 -165 -775
-28 -132 -57 -268 -65 -302 -8 -34 -15 -67 -15 -73 0 -6 66 -10 194 -10 l194
0 11 48 c5 26 33 155 61 287 98 462 131 555 235 659 76 76 149 109 252 114 46
2 96 -1 112 -6 25 -9 31 -8 35 6 6 18 52 226 66 297 5 23 10 47 12 55 2 7 -8
17 -22 21 -34 10 -157 9 -203 -2z" />
        <path fill="#304fa8"
            d="M9138 5961 c-31 -10 -76 -30 -100 -44 -53 -31 -160 -137 -196 -194
-15 -24 -33 -43 -40 -43 -13 0 -12 36 8 189 5 36 7 68 4 73 -3 4 -70 8 -149 8
-142 0 -145 0 -150 -22 -2 -13 -27 -131 -55 -263 -28 -132 -55 -258 -60 -280
-5 -22 -28 -128 -50 -235 -22 -107 -45 -213 -50 -235 -5 -22 -16 -71 -24 -110
-8 -38 -27 -123 -41 -187 -14 -65 -25 -120 -25 -123 0 -3 88 -5 195 -5 194 0
195 0 200 23 3 12 23 108 45 212 94 441 116 527 156 613 45 93 133 188 211
227 52 26 68 30 153 30 52 0 104 -2 115 -5 17 -4 21 3 32 55 7 33 26 118 41
188 20 87 25 130 18 134 -6 4 -49 8 -96 10 -63 2 -100 -2 -142 -16z" />
        <path fill="#304fa8"
            d="M5965 5955 c-151 -32 -225 -74 -345 -195 -76 -76 -104 -113 -143
-186 -94 -181 -131 -340 -132 -564 0 -136 3 -163 23 -224 53 -157 143 -244
312 -302 46 -16 83 -19 225 -18 158 0 176 2 255 28 47 16 102 37 123 47 l37
19 0 156 c0 144 -1 156 -17 151 -10 -3 -56 -22 -103 -41 -205 -85 -363 -65
-430 54 -23 42 -25 54 -24 180 0 74 6 155 13 180 51 191 135 323 239 377 57
29 73 33 145 33 66 0 101 -7 182 -34 55 -19 100 -33 101 -32 1 0 27 66 59 144
36 92 54 147 48 153 -17 17 -152 60 -236 75 -99 17 -250 17 -332 -1z" />
        <path fill="#304fa8"
            d="M6875 5939 c-4 -5 -16 -52 -26 -102 -142 -667 -157 -742 -168 -853
-26 -254 41 -426 194 -496 43 -20 66 -23 170 -23 113 0 124 2 185 31 74 35
160 110 226 196 25 32 50 58 56 58 7 0 9 -17 5 -47 -3 -27 -9 -85 -13 -130
l-7 -83 146 0 c130 0 146 2 151 18 2 9 21 94 41 187 19 94 40 188 45 210 15
67 37 169 90 420 28 132 69 322 91 423 21 101 39 187 39 193 0 5 -78 9 -190 9
-224 0 -192 26 -239 -195 -119 -562 -130 -603 -198 -742 -86 -179 -200 -263
-312 -233 -79 21 -114 109 -92 235 5 33 28 148 51 255 23 107 46 218 52 245 5
28 14 68 18 90 57 266 70 331 70 337 0 13 -378 10 -385 -3z" />
        <path fill="#304fa8"
            d="M9439 5946 c-3 -3 3 -60 13 -128 65 -444 76 -517 143 -973 14 -93 31
-212 39 -264 14 -91 14 -96 -6 -135 -32 -65 -102 -158 -151 -203 -73 -68 -104
-77 -244 -77 l-123 0 0 -148 0 -148 28 -12 c16 -8 78 -12 157 -12 114 0 140 4
212 27 145 48 270 151 368 302 29 44 94 159 145 255 51 96 107 202 125 235 18
33 88 164 155 290 67 127 139 262 160 300 21 39 58 108 83 155 24 47 97 183
161 302 64 119 116 222 116 228 0 7 -63 10 -207 8 l-208 -3 -45 -90 c-138
-273 -354 -735 -390 -835 -24 -63 -46 -119 -51 -124 -11 -13 -17 41 -23 214
-3 85 -12 209 -20 275 -7 66 -19 174 -26 240 -7 66 -18 165 -24 220 l-11 100
-186 3 c-102 1 -187 0 -190 -2z" />
    </g>
</svg>