<svg version="1.0" xmlns="http://www.w3.org/2000/svg"
    width="1200.000000pt" height="1200.000000pt" viewBox="0 0 1200.000000 1200.000000"
    preserveAspectRatio="xMidYMid meet">

    <g transform="translate(0.000000,1200.000000) scale(0.100000,-0.100000)"
        fill="#000000" stroke="none">
        <path fill="#304fa8"
            d="M2551 10078 c-98 -729 -106 -826 -106 -1304 0 -350 -2 -405 -13 -370
-31 100 -125 501 -168 720 -26 132 -49 236 -51 230 -6 -22 -64 -467 -85 -659
-30 -283 -33 -889 -5 -1110 17 -134 42 -298 53 -340 11 -46 -18 17 -52 112
-83 228 -158 511 -234 881 -26 128 -50 235 -52 237 -5 6 -65 -427 -83 -605
-20 -189 -29 -529 -18 -652 5 -54 5 -94 1 -90 -13 14 -81 289 -132 541 l-52
255 -17 -120 c-60 -412 -82 -663 -75 -847 3 -65 2 -115 -2 -110 -5 4 -42 72
-83 151 l-74 144 -12 -79 c-41 -293 -50 -739 -18 -939 31 -195 73 -335 145
-479 97 -196 152 -264 477 -595 263 -268 361 -381 469 -544 76 -113 187 -328
241 -466 20 -52 39 -99 42 -103 2 -4 26 23 52 60 242 344 504 289 801 -168 64
-98 245 -452 294 -576 l29 -72 -112 -533 c-62 -293 -115 -543 -118 -554 -4
-21 -1 -22 130 -26 l134 -3 36 -32 c20 -18 54 -36 74 -40 21 -4 169 -8 328 -8
324 0 361 6 424 67 69 67 69 68 225 808 409 1939 374 1773 451 2170 96 499
178 825 219 868 10 11 14 -8 20 -95 26 -434 55 -957 121 -2168 41 -765 77
-1429 81 -1476 l6 -87 114 -4 c99 -4 117 -7 137 -26 57 -53 79 -56 416 -60
340 -4 411 3 492 44 62 31 112 94 187 237 33 61 373 737 757 1502 903 1799
1005 1994 1105 2120 27 34 31 36 26 15 -3 -14 -49 -203 -100 -420 -52 -217
-151 -665 -221 -995 -412 -1962 -505 -2404 -505 -2408 0 -3 60 -6 134 -9 133
-3 133 -4 169 -35 20 -18 54 -36 74 -40 21 -4 178 -8 348 -8 l310 0 57 27 c69
32 111 85 138 177 17 55 158 713 365 1696 24 116 74 350 110 520 36 171 99
468 140 660 73 347 285 1349 391 1850 30 143 64 301 74 350 46 214 48 289 8
341 -22 27 -22 27 -4 128 9 56 20 113 23 129 l5 27 -843 0 -844 0 -924 -1843
c-1140 -2274 -1201 -2394 -1213 -2373 -19 34 -37 170 -48 356 -6 107 -17 278
-25 380 -8 102 -19 291 -25 420 -6 129 -13 244 -15 255 -3 11 -14 191 -25 400
-11 209 -27 479 -35 600 -7 121 -17 283 -20 360 -3 77 -12 217 -20 310 -8 94
-19 271 -25 395 -13 286 -27 374 -67 437 -15 22 -33 160 -33 251 l0 52 -804 0
c-634 0 -805 -3 -808 -12 -3 -7 -187 -874 -409 -1926 -294 -1390 -406 -1905
-411 -1885 -4 15 -26 202 -48 415 l-40 388 -61 105 c-199 341 -407 934 -603
1720 -176 707 -328 1472 -566 2865 -56 327 -106 598 -109 603 -4 4 -13 -34
-20 -85z m129 -1313 c294 -1615 570 -2743 836 -3418 60 -153 187 -424 234
-497 28 -45 29 -50 89 -645 34 -330 61 -614 61 -632 0 -18 -5 -56 -11 -85
l-12 -53 -15 35 c-63 141 -189 393 -242 480 -82 136 -129 199 -209 284 -150
156 -296 214 -437 171 -27 -8 -54 -15 -61 -15 -12 0 -318 415 -559 760 -526
749 -718 1203 -739 1745 l-5 130 21 -55 c128 -324 244 -565 467 -967 71 -128
131 -235 134 -238 3 -3 -32 115 -78 262 -147 476 -211 741 -249 1028 -15 114
-33 556 -22 545 2 -3 25 -66 50 -142 105 -313 268 -674 467 -1029 89 -159 433
-737 499 -839 29 -44 34 -58 -99 265 -401 973 -531 1470 -556 2125 -7 182 3
498 15 483 4 -4 24 -65 44 -136 44 -153 136 -413 224 -632 79 -200 326 -775
330 -771 2 1 -24 128 -57 282 -136 632 -189 986 -210 1409 -10 210 -2 593 11
560 5 -11 40 -195 79 -410z m-1058 -2800 c180 -317 405 -615 908 -1205 124
-146 250 -294 279 -330 l54 -64 -34 -26 c-19 -14 -56 -45 -83 -70 -37 -34 -50
-41 -54 -30 -15 43 -103 198 -170 300 -86 130 -204 278 -417 525 -155 180
-314 387 -382 496 -106 170 -194 384 -226 549 -32 160 -30 163 24 50 27 -57
73 -145 101 -195z" />
    </g>
</svg>